<?xml version="1.0" encoding="UTF-8"?>
<svg width="500" height="500" viewBox="0 0 500 500" xmlns="http://www.w3.org/2000/svg">
<path d="M 315 76 L 316 76 L 317 76 L 317 77 L 317 78 L 317 79 L 316 79 L 315 79 L 314 79 L 314 78 L 315 78 L 316 78 L 315 77 L 316 77 Z M 314 77 Z M 323 95 L 324 95 L 325 95 L 325 96 L 325 97 L 324 97 L 323 97 L 323 96 L 324 96 Z M 322 101 L 323 101 L 324 101 L 325 101 L 326 102 L 326 103 L 327 104 L 327 105 L 328 106 L 328 107 L 328 108 L 327 109 L 327 110 L 328 111 L 329 111 L 330 111 L 331 111 L 332 111 L 333 111 L 333 112 L 333 113 L 334 114 L 335 115 L 336 115 L 337 115 L 338 116 L 339 117 L 339 118 L 339 119 L 339 120 L 338 120 L 337 121 L 338 122 L 338 123 L 338 124 L 339 125 L 340 125 L 340 126 L 340 127 L 340 128 L 339 129 L 338 130 L 339 131 L 339 132 L 339 133 L 338 134 L 338 135 L 337 135 L 336 135 L 335 136 L 335 137 L 334 137 L 333 138 L 332 139 L 333 140 L 334 140 L 335 140 L 336 140 L 337 140 L 338 141 L 339 141 L 340 141 L 341 141 L 342 141 L 343 141 L 344 141 L 345 141 L 346 141 L 347 142 L 348 142 L 349 142 L 350 142 L 351 142 L 352 142 L 353 142 L 354 142 L 354 143 L 354 144 L 355 145 L 356 145 L 356 146 L 357 147 L 358 147 L 359 147 L 360 147 L 360 148 L 360 149 L 360 150 L 359 150 L 358 150 L 357 149 L 358 149 L 359 149 L 358 148 L 359 148 Z M 318 102 L 319 102 L 320 102 L 321 102 L 322 102 L 323 102 L 324 102 L 325 102 L 325 103 L 326 104 L 326 105 L 327 106 L 327 107 L 327 108 L 326 109 L 326 110 L 327 111 L 328 112 L 329 112 L 330 112 L 331 112 L 332 112 L 332 113 L 333 114 L 334 115 L 335 116 L 336 116 L 337 116 L 338 117 L 338 118 L 338 119 L 337 120 L 336 121 L 337 122 L 337 123 L 337 124 L 338 125 L 339 126 L 339 127 L 339 128 L 338 129 L 337 130 L 338 131 L 338 132 L 338 133 L 337 134 L 336 134 L 335 135 L 334 136 L 333 137 L 332 138 L 331 139 L 330 140 L 331 141 L 332 141 L 333 141 L 334 141 L 335 141 L 336 141 L 337 141 L 338 142 L 339 142 L 340 142 L 341 142 L 342 142 L 343 142 L 344 142 L 345 142 L 346 142 L 347 143 L 348 143 L 349 143 L 350 143 L 351 143 L 352 143 L 353 143 L 353 144 L 354 145 L 355 146 L 356 147 L 357 148 L 356 149 L 355 149 L 354 149 L 354 148 L 355 148 L 356 148 L 355 147 L 354 147 L 353 147 L 352 147 L 351 147 L 351 146 L 352 146 L 353 146 L 354 146 L 353 145 L 352 145 L 351 145 L 350 144 L 351 144 L 352 144 Z M 318 103 L 319 103 L 320 103 L 321 103 L 322 103 L 323 103 L 324 103 L 325 104 L 325 105 L 326 106 L 326 107 L 326 108 L 325 109 L 325 110 L 326 111 L 327 112 L 326 112 L 325 111 L 324 111 L 324 110 L 324 109 Z M 318 104 L 319 104 L 320 104 L 321 104 L 320 105 L 320 106 L 319 107 L 320 108 L 321 109 L 321 110 L 321 111 L 320 111 L 319 111 L 318 110 L 319 110 L 320 110 L 319 109 L 320 109 L 319 108 L 318 109 L 317 110 L 317 111 L 316 111 L 315 112 L 314 112 L 313 112 L 312 113 L 312 114 L 311 114 L 310 115 L 310 116 L 309 116 L 308 116 L 307 117 L 307 118 L 307 119 L 307 120 L 306 121 L 306 122 L 306 123 L 306 124 L 306 125 L 305 126 L 305 127 L 306 128 L 306 129 L 306 130 L 306 131 L 306 132 L 307 133 L 308 133 L 308 134 L 308 135 L 308 136 L 309 137 L 310 137 L 311 138 L 312 139 L 313 139 L 314 139 L 315 140 L 316 140 L 316 141 L 316 142 L 315 142 L 314 142 L 313 142 L 312 142 L 311 142 L 310 142 L 309 142 L 308 142 L 307 142 L 306 142 L 305 143 L 305 144 L 304 144 L 303 144 L 302 143 L 303 143 L 304 143 L 303 142 L 304 142 L 305 142 L 304 141 L 305 141 L 306 141 L 307 141 L 308 141 L 309 141 L 310 141 L 311 141 L 312 141 L 313 141 L 314 141 L 315 141 L 314 140 L 313 140 L 312 140 L 311 140 L 310 140 L 309 139 L 310 139 L 311 139 L 310 138 L 309 138 L 308 138 L 307 138 L 306 137 L 307 137 L 308 137 L 307 136 L 306 136 L 305 135 L 306 135 L 307 135 L 306 134 L 307 134 L 306 133 L 305 134 L 305 133 L 304 132 L 305 132 L 304 131 L 305 131 L 304 130 L 305 130 L 304 129 L 305 129 L 304 128 L 305 128 L 304 127 L 303 126 L 304 126 L 303 125 L 304 125 L 305 125 L 304 124 L 305 124 L 304 123 L 305 123 L 304 122 L 305 122 L 304 121 L 305 121 L 304 120 L 305 120 L 306 120 L 305 119 L 306 119 L 305 118 L 306 118 L 305 117 L 306 117 L 305 116 L 304 117 L 304 118 L 304 119 L 303 120 L 303 121 L 303 122 L 303 123 L 303 124 L 302 125 L 302 126 L 301 125 L 300 125 L 300 124 L 301 124 L 302 124 L 301 123 L 302 123 Z M 323 104 L 324 104 Z M 318 105 L 319 105 L 319 106 L 318 107 L 318 108 L 317 109 L 316 110 L 315 111 L 314 111 L 313 111 L 312 112 L 311 113 L 310 114 L 309 115 L 308 115 L 307 115 L 306 115 L 305 115 L 304 116 L 304 115 L 304 114 L 305 114 L 306 114 L 307 114 L 308 114 L 309 114 L 309 113 L 310 113 L 311 112 L 311 111 L 312 111 L 311 110 L 312 110 L 313 110 L 314 110 L 315 110 L 314 109 L 315 109 L 316 109 L 316 108 L 317 108 L 317 107 L 317 106 L 318 106 Z M 305 113 L 306 113 L 307 113 Z M 329 113 L 330 113 L 331 113 L 332 114 L 333 115 L 334 116 L 335 117 L 336 117 L 337 117 L 337 118 L 337 119 L 336 120 L 335 121 L 336 122 L 336 123 L 336 124 L 337 125 L 338 126 L 338 127 L 338 128 L 337 129 L 336 130 L 337 131 L 337 132 L 337 133 L 336 133 L 335 134 L 334 135 L 333 136 L 332 137 L 331 138 L 330 139 L 329 140 L 330 141 L 331 142 L 332 142 L 333 142 L 334 142 L 335 142 L 336 142 L 337 142 L 338 143 L 339 143 L 340 143 L 341 143 L 342 143 L 343 143 L 344 143 L 345 143 L 346 143 L 347 144 L 348 144 L 349 144 L 349 145 L 349 146 L 348 146 L 347 146 L 346 146 L 345 145 L 346 145 L 347 145 L 348 145 Z M 332 115 L 333 116 L 334 117 Z M 335 119 L 336 119 L 335 120 Z M 300 123 Z M 336 125 L 337 126 L 337 127 L 337 128 L 336 129 L 336 128 L 336 127 L 336 126 Z M 303 129 L 303 130 L 303 131 L 302 132 L 301 132 L 300 132 L 300 131 L 301 131 L 302 131 L 301 130 L 302 130 Z M 300 130 Z M 336 131 L 336 132 L 335 133 L 334 134 Z M 335 132 Z M 332 136 L 331 137 L 330 138 L 329 139 L 328 140 L 329 141 L 330 142 L 331 143 L 332 143 L 333 143 Z M 277 138 L 278 138 L 279 138 L 279 139 L 279 140 L 280 141 L 281 141 L 282 142 L 283 143 L 284 143 L 285 144 L 286 145 L 287 145 L 288 145 L 289 145 L 290 145 L 291 145 L 291 146 L 290 146 L 289 146 L 288 147 L 288 148 L 287 148 L 286 148 L 285 148 L 285 147 L 286 147 L 287 147 L 286 146 L 287 146 L 288 146 Z M 329 138 Z M 277 139 L 278 139 L 278 140 L 279 141 L 280 142 L 281 142 L 282 143 L 283 144 L 284 144 L 285 145 L 285 146 L 284 146 L 283 145 L 284 145 Z M 291 139 L 292 139 L 293 139 L 294 140 L 295 140 L 295 141 L 295 142 L 295 143 L 296 144 L 297 144 L 298 144 L 299 144 L 300 144 L 301 144 L 300 143 L 301 143 L 300 142 L 301 142 L 302 142 L 301 141 L 302 141 L 303 141 L 302 140 L 303 140 L 304 140 Z M 351 139 L 352 139 L 353 139 L 353 140 L 354 141 L 353 141 L 352 141 L 351 141 L 351 140 L 352 140 Z M 277 140 Z M 290 140 L 291 140 L 292 140 L 293 140 L 294 141 L 294 142 L 294 143 L 295 144 L 296 145 L 297 145 L 298 145 Z M 298 140 L 299 140 L 300 140 L 300 141 L 299 142 L 299 143 L 298 143 L 297 143 L 297 142 L 298 142 L 298 141 L 299 141 Z M 326 140 L 327 140 L 328 141 L 329 142 L 328 142 L 327 142 L 326 142 L 326 141 L 327 141 Z M 343 140 L 344 140 L 345 140 L 346 140 Z M 290 141 L 291 141 L 292 141 L 293 141 L 293 142 L 293 143 L 294 144 L 295 145 L 294 145 Z M 278 142 L 279 142 L 280 143 L 281 143 L 282 144 L 281 144 L 280 145 L 279 146 L 279 147 L 279 148 L 280 149 L 281 149 L 281 150 L 281 151 L 280 151 L 279 152 L 278 152 L 277 152 L 276 152 L 275 152 L 274 152 L 273 153 L 272 154 L 272 155 L 272 156 L 271 156 L 270 157 L 269 157 L 268 157 L 267 158 L 266 158 L 265 159 L 265 160 L 264 161 L 263 161 L 262 161 L 262 160 L 263 160 L 264 160 L 263 159 L 264 159 L 263 158 L 264 158 L 265 158 L 264 157 L 265 157 L 266 157 L 267 157 L 266 156 L 267 156 L 268 156 L 269 156 L 270 156 L 269 155 L 270 155 L 271 155 L 270 154 L 271 154 L 270 153 L 271 153 L 272 153 L 271 152 L 272 152 L 273 152 L 272 151 L 273 151 L 274 151 L 275 151 L 276 151 L 277 151 L 278 151 L 279 151 L 278 150 L 279 150 L 280 150 L 279 149 L 278 149 L 277 150 L 276 150 L 276 149 L 277 149 L 278 148 L 278 147 L 278 146 L 278 145 L 279 145 L 278 144 L 279 144 L 280 144 L 279 143 L 278 143 Z M 290 142 L 291 142 L 292 142 L 292 143 L 292 144 L 291 144 L 290 144 L 289 144 L 288 144 L 287 144 Z M 400 142 L 401 142 L 402 142 L 402 143 L 402 144 L 401 144 L 400 144 L 400 143 L 401 143 Z M 290 143 L 291 143 Z M 335 143 L 336 143 L 337 143 L 338 144 L 339 144 Z M 358 143 L 359 143 L 360 143 L 361 143 L 362 143 L 363 143 L 364 143 L 365 143 L 365 144 L 365 145 L 365 146 L 366 147 L 367 147 L 368 148 L 368 149 L 368 150 L 367 150 L 366 151 L 367 152 L 368 152 L 369 153 L 370 153 L 371 153 L 372 153 L 373 153 L 373 154 L 373 155 L 374 156 L 375 156 L 376 156 L 376 157 L 377 158 L 378 158 L 379 159 L 380 159 L 381 159 L 382 159 L 381 160 L 381 161 L 381 162 L 382 163 L 382 164 L 382 165 L 381 165 L 380 165 L 380 164 L 381 164 L 380 163 L 381 163 L 380 162 L 379 163 L 378 163 L 377 162 L 378 162 L 379 162 L 378 161 L 379 161 L 380 161 L 379 160 L 380 160 Z M 248 144 L 249 144 L 250 144 L 251 145 L 252 145 L 253 145 L 253 146 L 254 147 L 255 148 L 256 149 L 257 149 L 258 149 L 259 149 L 260 149 L 261 149 L 262 149 L 263 150 L 264 150 L 265 151 L 265 152 L 265 153 L 266 154 L 267 155 L 268 155 L 269 154 L 269 153 L 269 152 L 270 152 Z M 337 144 Z M 341 144 L 342 144 L 343 144 L 344 144 L 345 144 L 346 144 Z M 358 144 L 359 144 L 360 144 L 361 144 L 362 144 L 363 144 L 364 144 L 364 145 L 364 146 L 365 147 L 366 148 L 367 148 L 367 149 L 366 150 L 365 151 L 366 152 L 367 153 L 368 153 L 369 154 L 370 154 L 371 154 L 372 154 L 372 155 L 373 156 L 374 157 L 375 157 L 376 158 L 377 159 L 378 159 L 378 160 L 377 161 L 376 161 L 375 160 L 376 160 L 377 160 L 376 159 L 375 159 L 374 160 L 374 159 L 373 158 L 374 158 L 375 158 Z M 248 145 L 249 145 L 250 145 L 251 146 L 252 146 L 253 147 L 254 148 L 255 149 L 256 150 L 257 150 L 258 150 L 259 150 L 260 150 L 261 150 L 262 150 L 263 151 L 264 151 L 264 152 L 264 153 L 265 154 L 266 155 L 265 156 L 264 156 L 263 157 Z M 260 145 L 261 145 L 262 145 L 262 146 L 262 147 L 262 148 L 261 148 L 260 148 L 259 148 L 258 148 L 257 148 Z M 341 145 L 342 145 L 343 145 L 344 145 Z M 358 145 L 359 145 L 360 145 L 361 145 L 362 145 L 363 145 L 363 146 L 364 147 L 365 148 L 366 149 L 365 150 L 364 151 L 365 152 L 366 153 L 367 154 L 368 154 L 369 155 L 370 155 L 371 155 L 372 156 L 373 157 L 372 158 L 371 157 L 372 157 L 371 156 Z M 248 146 L 249 146 L 250 146 L 251 147 L 252 147 L 253 148 L 254 149 L 255 150 L 254 150 L 253 151 L 253 152 L 253 153 L 252 154 L 251 155 L 251 156 L 250 157 L 251 158 L 252 159 L 252 160 L 253 161 L 254 161 L 255 161 L 256 162 L 257 162 L 257 163 L 257 164 L 257 165 L 256 166 L 256 167 L 255 167 L 254 168 L 253 168 L 252 169 L 252 170 L 251 170 L 250 170 L 249 170 L 248 170 L 247 171 L 248 172 L 248 173 L 248 174 L 247 174 L 246 175 L 245 176 L 245 177 L 244 178 L 244 179 L 243 179 L 242 179 L 241 179 L 241 178 L 242 178 L 243 178 L 242 177 L 243 177 L 244 177 L 243 176 L 244 176 L 243 175 L 244 175 L 245 175 L 244 174 L 245 174 L 246 174 L 245 173 L 246 173 L 247 173 L 246 172 L 247 172 L 246 171 L 245 172 L 244 173 L 243 174 L 242 175 L 242 176 L 241 177 L 240 177 L 240 176 L 241 176 L 240 175 L 241 175 L 240 174 L 241 174 L 242 174 L 241 173 L 242 173 L 243 173 L 243 172 L 244 172 L 243 171 L 244 171 L 245 171 L 244 170 L 245 170 L 246 170 L 247 170 L 246 169 L 247 169 L 248 169 L 249 169 L 250 169 L 251 169 L 250 168 L 251 168 L 252 168 L 251 167 L 252 167 L 253 167 L 254 167 L 253 166 L 254 166 L 255 166 L 254 165 L 255 165 L 256 165 L 255 164 L 256 164 L 255 163 L 256 163 L 255 162 L 254 163 L 254 164 L 253 163 L 252 163 L 251 163 L 251 162 L 252 162 L 253 162 L 254 162 Z M 260 146 L 261 146 L 261 147 L 260 147 Z M 358 146 L 359 146 L 360 146 L 361 146 L 362 146 L 363 147 L 364 148 L 365 149 L 364 150 L 363 151 L 364 152 L 365 153 Z M 250 147 L 251 148 L 252 148 L 253 149 L 252 150 L 252 151 L 252 152 L 252 153 L 251 154 L 250 155 L 250 156 L 249 157 L 250 158 L 251 159 L 251 160 L 252 161 L 251 161 L 250 160 L 249 159 L 250 159 L 249 158 Z M 250 148 L 251 149 L 252 149 L 251 150 L 251 151 L 251 152 L 251 153 L 250 154 L 249 155 L 249 156 Z M 271 148 L 272 148 L 273 148 L 273 149 L 274 150 L 273 150 L 272 150 L 271 150 L 271 149 L 272 149 Z M 250 149 L 250 150 L 250 151 Z M 364 149 L 363 150 Z M 261 151 L 262 151 L 263 152 Z M 386 151 L 387 151 L 388 151 L 389 152 L 390 153 L 391 153 L 392 153 L 393 154 L 394 154 L 395 154 L 396 154 L 397 154 L 398 154 L 399 154 L 400 154 L 401 154 L 400 153 L 401 153 L 400 152 L 401 152 Z M 363 152 Z M 370 152 L 371 152 L 372 152 Z M 386 152 L 387 152 L 388 152 L 389 153 L 390 154 L 391 154 L 392 154 L 393 155 L 394 155 L 395 155 L 396 155 L 397 155 L 398 155 L 399 155 L 399 156 L 399 157 L 399 158 L 398 158 L 397 159 L 397 160 L 397 161 L 397 162 L 398 163 L 398 164 L 398 165 L 397 166 L 396 167 L 395 168 L 395 169 L 394 169 L 393 170 L 392 170 L 391 171 L 392 172 L 392 173 L 392 174 L 393 175 L 394 175 L 395 175 L 396 175 L 396 176 L 396 177 L 395 178 L 396 179 L 397 179 L 398 180 L 399 180 L 400 180 L 401 180 L 401 181 L 401 182 L 400 182 L 399 183 L 398 184 L 399 185 L 400 185 L 401 185 L 401 186 L 401 187 L 401 188 L 401 189 L 402 190 L 403 190 L 404 190 L 405 190 L 406 190 L 407 190 L 408 190 L 409 190 L 409 191 L 410 192 L 411 192 L 412 192 L 412 193 L 412 194 L 411 195 L 410 195 L 409 196 L 409 197 L 409 198 L 408 198 L 407 199 L 406 200 L 406 201 L 406 202 L 406 203 L 406 204 L 406 205 L 406 206 L 406 207 L 406 208 L 406 209 L 406 210 L 407 211 L 408 211 L 409 211 L 409 212 L 410 213 L 411 213 L 411 214 L 411 215 L 410 216 L 409 217 L 408 217 L 407 217 L 406 217 L 405 218 L 406 219 L 406 220 L 406 221 L 406 222 L 405 223 L 406 224 L 407 224 L 408 224 L 408 225 L 408 226 L 407 227 L 407 228 L 406 228 L 405 228 L 404 229 L 404 230 L 404 231 L 404 232 L 404 233 L 404 234 L 403 235 L 402 235 L 401 235 L 400 236 L 400 237 L 401 238 L 401 239 L 401 240 L 400 240 L 399 240 L 398 241 L 398 242 L 397 242 L 396 243 L 396 244 L 395 245 L 394 246 L 393 247 L 392 248 L 391 248 L 390 248 L 389 249 L 388 250 L 389 251 L 390 252 L 391 252 L 392 252 L 393 253 L 394 254 L 395 255 L 396 256 L 396 257 L 397 258 L 398 258 L 398 259 L 399 260 L 400 260 L 401 260 L 401 261 L 401 262 L 400 263 L 400 264 L 401 265 L 402 265 L 403 265 L 404 266 L 404 267 L 404 268 L 404 269 L 404 270 L 404 271 L 405 272 L 406 272 L 407 272 L 407 273 L 408 274 L 408 275 L 408 276 L 407 276 L 406 276 L 405 277 L 406 278 L 406 279 L 406 280 L 406 281 L 405 282 L 406 283 L 407 283 L 408 283 L 409 283 L 410 284 L 411 285 L 411 286 L 411 287 L 410 287 L 409 288 L 409 289 L 408 289 L 407 289 L 406 290 L 406 291 L 406 292 L 406 293 L 406 294 L 406 295 L 406 296 L 406 297 L 406 298 L 406 299 L 406 300 L 407 301 L 408 302 L 409 302 L 409 303 L 409 304 L 410 305 L 411 305 L 412 306 L 412 307 L 412 308 L 411 308 L 410 308 L 409 309 L 409 310 L 408 310 L 407 311 L 406 311 L 405 311 L 404 311 L 403 311 L 402 310 L 403 310 L 404 310 L 405 310 L 406 310 L 407 310 L 406 309 L 407 309 L 408 309 L 408 308 L 409 308 L 408 307 L 409 307 L 410 307 L 411 307 L 410 306 L 411 306 Z M 399 152 L 399 153 Z M 250 153 Z M 386 153 L 387 153 L 388 153 L 389 154 L 390 155 L 391 155 L 392 155 L 393 156 L 394 156 Z M 395 153 L 396 153 L 397 153 Z M 264 154 L 265 155 L 264 155 Z M 382 154 L 383 154 L 384 154 L 385 154 L 386 154 L 387 154 L 388 154 L 389 155 Z M 405 154 L 406 154 L 407 154 L 407 155 L 407 156 L 406 156 L 405 156 L 405 155 L 406 155 Z M 368 155 Z M 382 155 L 383 155 L 384 155 L 385 155 L 386 155 L 387 155 Z M 244 156 L 245 156 L 246 156 L 246 157 L 246 158 L 245 158 L 244 158 L 244 157 L 245 157 Z M 380 156 L 381 156 L 382 156 L 383 156 L 384 156 L 384 157 L 383 158 L 382 158 L 381 158 L 380 158 L 380 157 L 381 157 L 382 157 L 383 157 Z M 392 156 Z M 397 156 L 398 156 L 398 157 L 397 158 L 396 159 L 396 160 L 396 161 L 396 162 L 397 163 L 397 164 L 397 165 L 396 166 L 395 167 L 394 168 L 393 169 L 392 169 L 391 170 L 390 171 L 391 172 L 391 173 L 391 174 L 392 175 L 393 176 L 394 176 L 395 176 L 395 177 L 394 178 L 395 179 L 396 180 L 397 180 L 398 181 L 399 181 L 400 181 L 399 182 L 398 183 L 397 184 L 398 185 L 399 186 L 400 186 L 400 187 L 400 188 L 400 189 L 401 190 L 402 191 L 403 191 L 404 191 Z M 396 157 L 397 157 L 396 158 L 395 159 L 395 160 Z M 395 158 Z M 262 159 Z M 395 162 L 396 163 L 396 164 L 396 165 L 395 166 L 394 167 L 393 168 L 392 168 L 391 169 L 390 170 L 389 171 L 390 172 L 390 173 L 390 174 L 391 175 L 392 176 L 393 177 L 394 177 L 393 178 L 394 179 L 395 180 L 396 181 L 397 181 L 398 182 L 397 183 L 396 184 L 397 185 L 398 186 L 399 187 L 399 188 L 399 189 L 400 190 L 401 191 L 402 192 L 402 193 L 401 193 L 400 193 L 400 192 L 401 192 L 400 191 Z M 395 163 L 395 164 L 395 165 L 394 166 L 393 167 L 392 167 L 391 168 L 390 169 L 389 170 L 388 171 L 389 172 L 389 173 L 389 174 L 390 175 L 391 176 L 392 177 L 391 177 L 390 176 Z M 250 165 L 251 165 L 252 165 L 252 166 L 251 166 L 250 167 L 250 166 Z M 244 167 L 245 167 L 246 167 L 246 168 L 245 169 L 244 169 L 243 170 L 242 170 L 242 169 L 243 169 L 242 168 L 243 168 L 244 168 L 245 168 Z M 385 168 L 386 168 L 387 168 L 388 169 L 389 169 L 388 170 L 387 171 L 388 172 L 388 173 Z M 390 168 Z M 385 169 L 386 169 L 387 169 L 387 170 L 386 170 L 385 170 Z M 238 172 L 239 172 L 240 172 L 241 172 L 240 173 L 239 174 L 239 175 L 238 176 L 237 177 L 236 177 L 235 178 L 235 179 L 235 180 L 236 181 L 237 182 L 238 182 L 239 182 L 240 182 L 240 183 L 240 184 L 239 184 L 238 185 L 237 185 L 236 186 L 236 187 L 235 188 L 235 189 L 235 190 L 235 191 L 234 192 L 233 193 L 233 194 L 232 194 L 231 194 L 230 195 L 230 196 L 230 197 L 230 198 L 229 199 L 228 199 L 227 200 L 228 201 L 228 202 L 228 203 L 227 203 L 226 203 L 225 203 L 224 204 L 225 205 L 226 206 L 226 207 L 226 208 L 225 209 L 225 210 L 224 210 L 223 211 L 223 212 L 223 213 L 223 214 L 223 215 L 222 216 L 222 217 L 222 218 L 221 219 L 220 220 L 221 221 L 221 222 L 221 223 L 220 223 L 219 224 L 219 225 L 219 226 L 219 227 L 219 228 L 219 229 L 219 230 L 219 231 L 218 232 L 218 233 L 218 234 L 218 235 L 218 236 L 218 237 L 218 238 L 218 239 L 218 240 L 217 241 L 217 242 L 216 242 L 215 242 L 215 241 L 216 241 L 215 240 L 216 240 L 217 240 L 216 239 L 217 239 L 216 238 L 217 238 L 216 237 L 217 237 L 216 236 L 217 236 L 216 235 L 217 235 L 217 234 L 217 233 L 217 232 L 217 231 L 218 231 L 217 230 L 218 230 L 217 229 L 218 229 L 217 228 L 218 228 L 217 227 L 218 227 L 217 226 L 218 226 L 217 225 L 218 225 L 217 224 L 218 224 L 217 223 L 218 223 L 219 223 L 218 222 L 219 222 L 220 222 L 219 221 L 220 221 L 219 220 L 218 221 L 217 222 L 217 221 L 217 220 L 218 220 L 217 219 L 218 219 L 219 219 L 220 219 L 219 218 L 220 218 L 221 218 L 220 217 L 221 217 L 220 216 L 221 216 L 220 215 L 221 215 L 222 215 L 221 214 L 222 214 L 221 213 L 222 213 L 221 212 L 222 212 L 221 211 L 222 211 L 221 210 L 222 210 L 223 210 L 222 209 L 223 209 L 224 209 L 223 208 L 224 208 L 225 208 L 224 207 L 225 207 L 224 206 L 225 206 L 224 205 L 223 206 L 223 207 L 222 208 L 221 209 L 220 210 L 220 211 L 219 211 L 219 210 L 219 209 L 220 209 L 221 208 L 221 207 L 222 207 Z M 238 173 L 239 173 L 238 174 L 238 175 L 237 176 L 236 176 L 235 177 L 234 178 L 234 179 L 234 180 L 235 181 L 236 182 L 237 183 L 238 183 L 239 183 L 238 184 L 237 184 L 236 185 L 235 186 L 235 187 L 234 188 L 234 189 L 234 190 L 234 191 L 233 192 L 232 193 L 231 193 L 231 192 L 232 192 L 231 191 L 232 191 L 233 191 L 232 190 L 233 190 L 232 189 L 233 189 L 232 188 L 233 188 L 232 187 L 233 187 L 234 187 L 233 186 L 234 186 L 233 185 L 234 185 L 235 185 L 235 184 L 236 184 L 235 183 L 236 183 L 235 182 L 234 182 L 233 182 L 232 182 L 231 182 L 231 181 L 232 181 L 233 181 L 234 181 L 233 180 L 232 180 L 231 180 Z M 231 174 L 232 174 L 233 174 L 234 175 L 235 175 L 236 175 L 237 175 L 237 174 Z M 231 175 L 232 175 L 233 175 L 234 176 L 235 176 L 234 177 L 233 178 L 232 177 L 233 177 L 232 176 L 233 176 Z M 231 176 Z M 393 179 L 394 180 L 395 181 L 396 182 L 397 182 L 396 183 L 395 184 L 396 185 L 397 186 L 398 187 L 398 188 L 398 189 Z M 394 181 L 395 182 L 395 183 L 394 182 Z M 232 186 Z M 223 188 L 224 188 L 225 188 L 225 189 L 226 190 L 227 190 L 228 190 L 229 190 L 230 190 L 231 190 L 230 191 L 229 192 L 228 193 L 228 194 L 229 195 L 229 196 L 229 197 L 229 198 L 228 198 L 227 199 L 226 200 L 227 201 L 227 202 L 226 202 L 225 202 L 224 203 L 223 204 L 223 205 L 222 205 L 221 205 L 221 204 L 222 204 L 221 203 L 222 203 L 223 203 L 222 202 L 223 202 L 224 202 L 223 201 L 224 201 L 225 201 L 226 201 L 225 200 L 224 200 Z M 223 189 L 224 189 L 225 190 L 226 191 L 227 191 L 228 191 L 229 191 L 228 192 L 227 193 L 227 194 L 228 195 L 228 196 L 228 197 L 227 198 L 226 199 L 226 198 L 226 197 L 227 197 L 227 196 L 227 195 L 226 194 L 225 193 L 226 193 L 225 192 L 226 192 L 227 192 Z M 227 189 L 228 189 L 229 189 L 230 189 Z M 403 189 L 404 189 L 405 189 L 406 189 L 407 189 Z M 223 190 L 224 190 L 225 191 L 224 191 L 223 191 Z M 406 191 L 407 191 L 408 191 L 409 192 L 410 193 L 411 193 L 411 194 L 410 194 L 409 195 L 408 196 L 408 197 L 407 198 L 406 199 L 405 200 L 405 201 L 405 202 L 405 203 L 405 204 L 405 205 L 405 206 L 405 207 L 405 208 L 405 209 L 405 210 L 406 211 L 407 212 L 408 212 L 409 213 L 410 214 L 410 215 L 409 216 L 408 216 L 407 216 L 406 216 L 405 217 L 404 218 L 405 219 L 405 220 L 405 221 L 405 222 L 404 223 L 405 224 L 406 225 L 407 225 L 407 226 L 406 227 L 405 227 L 404 228 L 403 229 L 403 230 L 403 231 L 403 232 L 403 233 L 403 234 L 402 234 L 401 234 L 400 235 L 399 236 L 399 237 L 400 238 L 400 239 L 399 239 L 398 240 L 397 241 L 396 242 L 395 243 L 395 244 L 394 245 L 393 246 L 392 247 L 391 247 L 390 247 L 389 248 L 388 249 L 387 250 L 388 251 L 389 252 L 390 253 L 391 253 L 392 253 L 393 254 L 394 255 L 395 256 L 395 257 L 396 258 L 397 259 L 398 260 L 399 261 L 400 261 L 400 262 L 399 263 L 399 264 L 400 265 L 401 266 L 402 266 L 403 266 L 403 267 L 403 268 L 403 269 L 403 270 L 403 271 L 404 272 L 405 273 L 406 273 L 407 274 L 407 275 L 406 275 L 405 276 L 404 277 L 405 278 L 405 279 L 405 280 L 405 281 L 404 282 L 405 283 L 406 284 L 407 284 L 408 284 L 409 284 L 410 285 L 410 286 L 409 287 L 408 288 L 407 288 L 406 289 L 405 290 L 405 291 L 405 292 L 405 293 L 405 294 L 405 295 L 405 296 L 405 297 L 405 298 L 405 299 L 405 300 L 406 301 L 407 302 L 408 303 L 408 304 L 409 305 L 409 306 L 408 306 L 408 305 Z M 408 192 L 409 193 L 409 194 L 408 195 L 408 194 L 408 193 Z M 401 196 L 402 196 L 403 196 L 404 197 L 405 198 L 406 198 L 405 199 L 404 200 L 404 201 L 404 202 L 404 203 L 404 204 L 404 205 L 404 206 L 404 207 L 404 208 Z M 401 197 L 402 197 L 403 197 L 404 198 L 404 199 L 403 200 L 403 201 L 403 202 L 403 203 L 403 204 Z M 406 197 L 407 197 Z M 401 198 L 402 198 L 403 198 L 403 199 L 402 200 L 402 199 Z M 222 201 Z M 171 202 L 172 202 L 173 202 L 174 202 L 175 202 L 176 202 L 177 202 L 178 203 L 178 204 L 179 205 L 179 206 L 180 207 L 181 207 L 182 207 L 183 207 L 184 208 L 185 208 L 186 208 L 187 208 L 187 209 L 187 210 L 186 210 L 185 210 L 184 210 L 183 209 L 184 209 L 185 209 L 186 209 Z M 148 203 L 149 203 L 150 203 L 151 203 L 151 204 L 152 205 L 153 205 L 154 205 L 155 205 L 156 205 L 156 206 L 157 207 L 157 208 L 157 209 L 157 210 L 158 211 L 159 211 L 160 211 L 161 211 L 162 211 L 161 210 L 162 210 L 163 210 L 164 210 L 165 210 L 164 209 L 165 209 L 166 209 L 167 209 L 168 209 L 169 209 L 170 209 L 171 209 L 172 209 L 173 209 L 174 209 L 173 208 L 174 208 L 173 207 L 174 207 L 173 206 L 172 207 L 172 208 L 171 208 L 170 208 L 169 208 L 168 208 L 167 208 L 166 208 L 165 208 L 164 208 L 163 209 L 162 209 L 161 209 L 160 210 L 159 210 Z M 171 203 L 172 203 L 173 203 L 174 203 L 175 203 L 176 203 L 177 203 L 177 204 L 178 205 L 178 206 L 179 207 L 180 208 L 181 208 L 182 208 L 183 208 L 182 209 L 181 209 L 180 209 L 179 208 L 178 209 L 177 209 L 176 209 L 176 208 L 177 208 L 178 208 L 177 207 L 178 207 L 177 206 L 176 207 Z M 188 203 L 189 203 L 190 203 L 190 204 L 191 205 L 191 206 L 191 207 L 191 208 L 192 209 L 193 210 L 194 210 L 195 210 L 196 210 L 197 210 L 198 211 L 199 211 L 199 212 L 199 213 L 200 214 L 201 215 L 202 215 L 203 215 L 203 216 L 203 217 L 204 218 L 205 218 L 206 218 L 207 218 L 207 219 L 207 220 L 208 221 L 208 222 L 209 223 L 210 223 L 211 223 L 212 224 L 212 225 L 212 226 L 212 227 L 213 228 L 213 229 L 213 230 L 214 231 L 215 231 L 215 232 L 215 233 L 215 234 L 215 235 L 215 236 L 215 237 L 215 238 L 215 239 Z M 148 204 L 149 204 L 150 204 L 151 205 L 152 206 L 153 206 L 154 206 L 155 206 L 156 207 L 156 208 L 156 209 L 156 210 L 157 211 L 158 212 L 159 212 L 160 212 Z M 154 204 L 155 204 L 156 204 Z M 171 204 L 172 204 L 173 204 L 174 204 L 173 205 L 172 206 L 172 205 Z M 176 204 L 177 205 Z M 188 204 L 189 204 L 190 205 L 190 206 L 190 207 L 190 208 L 191 209 L 192 210 L 193 211 L 194 211 L 195 211 L 196 211 L 197 211 L 198 212 L 198 213 L 199 214 L 200 215 L 201 216 L 202 216 L 202 217 L 203 218 L 204 219 L 205 219 L 206 219 L 206 220 L 207 221 L 207 222 L 208 223 L 209 224 L 210 224 L 211 224 L 211 225 L 211 226 L 211 227 L 212 228 L 212 229 L 212 230 L 213 231 L 214 232 L 214 233 L 214 234 L 214 235 L 214 236 L 214 237 Z M 148 205 L 149 205 L 150 205 L 151 206 L 150 206 L 149 207 L 149 208 L 148 209 L 148 210 L 148 211 L 149 212 L 149 213 L 150 214 L 151 214 L 152 214 L 152 215 L 152 216 L 151 216 L 150 217 L 149 217 L 148 218 L 147 219 L 146 220 L 145 221 L 145 222 L 144 223 L 143 224 L 143 225 L 142 225 L 141 225 L 140 226 L 140 227 L 140 228 L 139 229 L 139 230 L 138 231 L 137 232 L 137 233 L 137 234 L 136 235 L 135 236 L 135 237 L 135 238 L 135 239 L 135 240 L 134 241 L 134 242 L 134 243 L 134 244 L 134 245 L 134 246 L 134 247 L 134 248 L 133 248 L 132 248 L 132 247 L 133 247 L 132 246 L 133 246 L 132 245 L 133 245 L 132 244 L 133 244 L 132 243 L 133 243 L 132 242 L 133 242 L 133 241 L 133 240 L 134 240 L 133 239 L 134 239 L 133 238 L 134 238 L 133 237 L 134 237 L 133 236 L 134 236 L 133 235 L 134 235 L 135 235 L 134 234 L 135 234 L 136 234 L 135 233 L 136 233 L 135 232 L 136 232 L 135 231 L 136 231 L 137 231 L 136 230 L 137 230 L 138 230 L 137 229 L 138 229 L 137 228 L 138 228 L 139 228 L 138 227 L 139 227 L 138 226 L 139 226 L 138 225 L 139 225 L 138 224 L 139 224 L 138 223 L 139 223 L 140 223 L 141 223 L 142 223 L 143 223 L 142 224 L 141 224 Z M 188 205 L 189 205 L 189 206 L 189 207 L 188 207 L 187 207 L 186 207 L 186 206 L 187 206 L 188 206 Z M 148 206 L 149 206 L 148 207 L 148 208 L 147 209 L 147 210 L 147 211 L 148 212 L 148 213 L 149 214 L 150 215 L 151 215 L 150 216 L 149 216 L 148 217 L 147 218 L 146 219 L 145 220 L 144 221 L 144 222 L 143 222 L 142 222 L 141 222 L 140 222 L 139 222 L 138 222 L 137 223 L 137 224 L 137 225 L 137 226 L 137 227 Z M 164 206 L 165 206 L 166 206 L 167 207 L 168 207 L 169 207 L 170 207 Z M 181 206 L 182 206 L 183 206 Z M 147 207 L 147 208 L 146 209 L 146 210 L 146 211 L 147 212 L 147 213 L 148 214 L 149 215 L 148 216 L 147 217 L 146 218 L 145 219 L 144 220 L 143 221 L 143 220 L 143 219 L 144 219 L 143 218 L 144 218 L 145 218 L 144 217 L 145 217 L 146 217 L 147 216 L 148 215 Z M 155 207 L 155 208 Z M 163 207 L 164 207 L 165 207 L 166 207 Z M 143 208 L 144 208 L 145 208 L 146 208 L 145 209 L 145 210 L 144 210 L 143 210 L 143 209 L 144 209 Z M 163 208 Z M 190 209 L 191 210 L 192 211 L 193 212 L 194 212 L 195 212 L 196 212 L 197 212 L 197 213 L 198 214 L 199 215 L 200 216 L 199 216 L 198 215 L 197 215 L 196 214 L 197 214 L 196 213 L 195 214 L 194 214 L 193 213 L 194 213 L 195 213 Z M 190 210 L 191 211 L 192 212 L 192 213 L 191 212 Z M 404 210 L 405 211 L 406 212 L 405 212 L 404 212 L 404 211 Z M 156 211 L 157 212 L 156 212 Z M 219 213 L 220 213 L 220 214 L 219 215 L 219 216 L 219 217 L 218 218 L 218 217 L 218 216 L 218 215 L 218 214 L 219 214 Z M 408 213 L 409 214 L 409 215 L 408 215 L 408 214 Z M 205 216 L 206 216 L 207 216 L 207 217 L 206 217 L 205 217 Z M 404 216 L 405 216 L 404 217 Z M 143 217 Z M 202 218 L 203 219 L 204 220 L 205 220 L 206 221 L 206 222 L 207 223 L 208 224 L 209 225 L 210 225 L 210 226 L 210 227 L 211 228 L 211 229 L 211 230 L 212 231 L 213 232 L 212 232 L 211 231 Z M 202 219 L 203 220 Z M 404 219 L 404 220 L 404 221 L 404 222 L 403 223 L 404 224 L 405 225 L 406 226 L 405 226 L 404 227 L 403 228 L 402 229 L 402 230 L 402 231 L 402 232 L 402 233 L 401 233 L 400 234 L 399 235 L 399 234 L 400 233 L 400 232 L 401 232 L 400 231 L 401 231 L 401 230 L 401 229 L 402 228 L 402 227 L 403 227 L 402 226 L 403 226 L 404 226 L 404 225 L 403 224 Z M 139 221 L 140 221 L 141 221 Z M 205 221 L 205 222 Z M 137 222 Z M 403 222 Z M 207 224 L 208 225 L 209 226 L 209 227 L 210 228 L 210 229 Z M 207 225 Z M 135 229 L 136 229 L 135 230 L 134 231 L 134 232 L 134 233 L 133 234 L 133 233 L 133 232 L 133 231 L 133 230 L 134 230 Z M 121 237 L 122 237 L 123 237 L 124 238 L 125 238 L 126 238 L 127 238 L 127 239 L 128 240 L 129 240 L 130 241 L 131 242 L 131 243 L 131 244 L 131 245 Z M 121 238 L 122 238 L 123 238 L 124 239 L 125 239 L 126 239 L 127 240 L 128 241 L 129 241 L 130 242 L 130 243 L 129 243 L 128 242 L 129 242 Z M 397 238 L 398 238 L 399 238 L 398 239 L 397 240 L 396 241 L 395 242 L 394 243 L 394 244 L 393 245 L 392 246 L 391 246 L 392 245 L 393 244 Z M 116 239 L 117 239 L 118 239 L 119 239 L 120 239 L 121 239 L 122 239 L 123 239 L 124 240 L 125 240 L 126 240 L 127 241 L 126 241 L 125 241 L 124 241 L 123 241 L 122 241 L 121 241 L 120 242 L 119 242 L 118 243 L 117 243 L 116 244 L 115 245 L 115 246 L 114 247 L 114 248 L 114 249 L 113 249 L 112 249 L 111 248 L 112 248 L 113 248 L 112 247 L 113 247 L 113 246 L 114 246 L 113 245 L 114 245 L 113 244 L 114 244 L 115 244 L 114 243 L 115 243 L 116 243 L 115 242 L 116 242 L 117 242 L 118 242 L 117 241 L 118 241 L 119 241 L 120 241 L 119 240 L 120 240 L 121 240 L 122 240 L 123 240 Z M 397 239 Z M 116 240 L 117 240 L 118 240 Z M 116 241 Z M 395 241 Z M 113 243 Z M 48 247 L 49 247 L 50 247 L 51 248 L 52 249 L 53 249 L 54 249 L 55 249 L 56 249 L 57 249 L 58 249 L 59 249 L 60 249 L 61 249 L 62 249 L 63 249 L 64 249 L 65 249 L 66 249 L 67 249 L 68 249 L 69 249 L 70 249 L 71 249 L 72 249 L 73 249 L 74 249 L 75 249 L 76 249 L 77 249 L 78 249 L 79 249 L 80 249 L 81 249 L 82 249 L 83 249 L 84 249 L 85 249 L 86 249 L 87 249 L 88 249 L 89 249 L 90 249 L 91 249 L 92 249 L 93 249 L 94 249 L 95 249 L 96 249 L 97 249 L 98 249 L 99 249 L 100 249 L 101 249 L 102 249 L 103 249 L 104 249 L 105 249 L 106 249 L 107 249 L 108 249 L 109 249 L 110 249 L 110 250 L 110 251 L 111 252 L 112 252 L 113 252 L 114 252 L 114 253 L 115 254 L 115 255 L 116 256 L 117 257 L 118 257 L 119 258 L 120 258 L 121 259 L 122 259 L 123 259 L 124 259 L 125 259 L 126 259 L 127 259 L 128 259 L 129 259 L 130 259 L 129 260 L 128 260 L 127 261 L 127 262 L 126 262 L 125 262 L 124 262 L 123 263 L 122 263 L 121 263 L 121 262 L 122 262 L 123 262 L 122 261 L 123 261 L 124 261 L 125 261 L 126 261 L 125 260 L 126 260 L 127 260 Z M 109 247 L 110 247 L 111 247 L 110 248 L 109 248 Z M 388 247 L 389 247 L 388 248 L 387 249 L 386 250 L 387 251 L 388 252 L 389 253 L 388 253 L 387 252 L 386 251 L 385 251 L 384 251 L 383 251 L 383 250 L 384 250 L 385 250 L 384 249 L 385 249 L 386 249 L 387 248 Z M 46 248 L 47 248 L 48 248 L 49 248 L 50 248 L 51 249 L 52 250 L 53 250 L 54 250 L 55 250 L 56 250 L 57 250 L 58 250 L 59 250 L 60 250 L 61 250 L 62 250 L 63 250 L 64 250 L 65 250 L 66 250 L 67 250 L 68 250 L 69 250 L 70 250 L 71 250 L 72 250 L 73 250 L 74 250 L 75 250 L 76 250 L 77 250 L 78 250 L 79 250 L 80 250 L 81 250 L 82 250 L 83 250 L 84 250 L 85 250 L 86 250 L 87 250 L 88 250 L 89 250 L 90 250 L 91 250 L 92 250 L 93 250 L 94 250 L 95 250 L 96 250 L 97 250 L 98 250 L 99 250 L 100 250 L 101 250 L 102 250 L 103 250 L 104 250 L 105 250 L 106 250 L 107 250 L 108 250 L 109 250 L 109 251 L 110 252 L 111 253 L 112 253 L 113 253 L 114 254 L 114 255 L 115 256 L 116 257 L 117 258 L 118 258 L 119 259 L 120 259 L 121 260 L 122 260 L 123 260 L 124 260 Z M 8 249 L 9 249 L 10 249 L 11 249 L 12 249 L 13 249 L 14 249 L 15 249 L 16 249 L 17 249 L 18 249 L 19 249 L 20 249 L 21 249 L 22 249 L 23 249 L 24 249 L 25 249 L 26 249 L 27 249 L 28 249 L 29 249 L 30 249 L 31 249 L 32 249 L 33 249 L 34 249 L 35 249 L 36 249 L 37 249 L 38 249 L 39 249 L 40 249 L 41 249 L 42 249 L 43 249 L 44 249 L 45 249 L 46 249 L 47 249 L 48 249 L 49 249 L 50 249 L 51 250 L 52 251 L 53 251 L 54 251 L 55 251 L 56 251 L 57 251 L 58 251 L 59 251 L 60 251 L 61 251 L 62 251 L 63 251 L 64 251 L 65 251 L 66 251 L 67 251 L 68 251 L 69 251 L 70 251 L 71 251 L 72 251 L 73 251 L 74 251 L 75 251 L 76 251 L 77 251 L 78 251 L 79 251 L 80 251 L 81 251 L 82 251 L 83 251 L 84 251 L 85 251 L 86 251 L 87 251 L 88 251 L 89 251 L 90 251 L 91 251 L 92 251 L 93 251 L 94 251 L 95 251 L 96 251 L 97 251 L 98 251 L 99 251 L 100 251 L 101 251 L 102 251 L 103 251 L 104 251 L 105 251 L 106 251 L 107 251 L 108 251 L 109 252 L 110 253 L 109 253 Z M 383 249 Z M 8 250 L 9 250 L 10 250 L 11 250 L 12 250 L 13 250 L 14 250 L 15 250 L 16 250 L 17 250 L 18 250 L 19 250 L 20 250 L 21 250 L 22 250 L 23 250 L 24 250 L 25 250 L 26 250 L 27 250 L 28 250 L 29 250 L 30 250 L 31 250 L 32 250 L 33 250 L 34 250 L 35 250 L 36 250 L 37 250 L 38 250 L 39 250 L 40 250 L 41 250 L 42 250 L 43 250 L 44 250 L 45 250 L 46 250 L 47 250 L 48 251 L 49 251 L 50 251 L 51 251 L 51 252 L 50 253 L 49 253 L 48 253 L 47 252 L 48 252 L 49 252 L 50 252 Z M 50 250 Z M 8 251 L 9 251 L 10 251 L 11 251 L 12 251 L 13 251 L 14 251 L 15 251 L 16 251 L 17 251 L 18 251 L 19 251 L 20 251 L 21 251 L 22 251 L 23 251 L 24 251 L 25 251 L 26 251 L 27 251 L 28 251 L 29 251 L 30 251 L 31 251 L 32 251 L 33 251 L 34 251 L 35 251 L 36 251 L 37 251 L 38 251 L 39 251 L 40 251 L 41 251 L 42 251 L 43 251 L 44 251 L 45 251 L 46 251 L 47 251 L 46 252 Z M 112 251 L 113 251 L 114 251 Z M 132 252 L 133 252 L 134 252 L 134 253 L 134 254 L 134 255 L 134 256 L 134 257 L 134 258 L 134 259 L 135 260 L 135 261 L 135 262 L 135 263 L 135 264 L 136 265 L 137 266 L 137 267 L 137 268 L 138 269 L 139 270 L 139 271 L 140 272 L 140 273 L 140 274 L 141 275 L 142 275 L 143 275 L 143 276 L 144 277 L 145 278 L 145 279 L 146 280 L 147 281 L 148 282 L 149 283 L 150 283 L 151 284 L 152 284 L 152 285 L 152 286 L 151 286 L 150 286 L 149 287 L 149 288 L 148 289 L 148 290 L 148 291 L 149 292 L 149 293 L 150 294 L 151 294 L 152 294 L 153 294 L 154 294 L 155 294 L 156 294 L 156 295 L 156 296 L 155 296 L 154 296 L 153 295 L 154 295 L 155 295 Z M 132 253 L 133 253 L 133 254 L 133 255 L 133 256 L 133 257 L 133 258 L 133 259 L 134 260 L 134 261 L 134 262 L 134 263 L 134 264 L 135 265 L 136 266 L 136 267 L 136 268 L 137 269 L 138 270 L 138 271 L 139 272 L 139 273 L 139 274 L 139 275 L 139 276 L 140 277 L 141 277 L 142 277 L 143 277 L 144 278 L 144 279 L 145 280 L 146 281 L 147 282 L 148 283 L 149 284 L 150 284 L 151 285 L 150 285 L 149 286 L 148 287 L 148 288 L 147 289 L 147 290 L 147 291 L 148 292 L 148 293 L 149 294 L 150 295 L 151 295 L 152 295 L 151 296 L 151 297 L 150 297 L 149 297 L 148 297 L 148 296 L 149 296 L 150 296 L 149 295 L 148 295 L 148 294 L 147 293 L 146 292 L 147 292 L 146 291 L 145 292 L 144 292 L 143 292 L 143 291 L 144 291 L 145 291 L 144 290 L 145 290 L 146 290 L 146 289 L 147 288 L 147 287 L 148 286 L 148 285 L 149 285 L 148 284 L 147 284 L 146 283 L 147 283 L 146 282 L 145 283 L 144 283 L 143 283 L 143 282 L 144 282 L 145 282 L 144 281 L 145 281 L 144 280 L 143 281 L 143 280 L 143 279 L 142 278 L 143 278 Z M 113 254 L 113 255 L 114 256 L 115 257 L 116 258 L 117 259 L 118 259 L 119 260 L 120 260 L 121 261 L 120 261 L 119 261 L 118 261 L 117 261 L 116 261 L 116 260 L 117 260 L 118 260 Z M 132 254 L 132 255 L 132 256 L 132 257 L 132 258 L 131 258 L 130 258 L 129 258 L 128 258 L 129 257 L 130 257 L 131 257 L 131 256 L 131 255 Z M 391 254 L 392 254 L 393 255 L 394 256 L 394 257 L 395 258 L 396 259 L 397 260 L 398 261 L 399 262 L 398 262 L 397 262 L 397 261 Z M 392 255 L 393 256 Z M 113 256 L 114 257 L 115 258 L 116 259 Z M 113 257 Z M 215 258 L 216 258 L 217 258 L 217 259 L 218 260 L 218 261 L 218 262 L 218 263 L 218 264 L 218 265 L 218 266 L 218 267 L 218 268 L 219 269 L 219 270 L 219 271 L 219 272 L 219 273 L 219 274 L 219 275 L 219 276 L 220 277 L 221 277 L 221 278 L 221 279 L 220 280 L 221 281 L 222 282 L 222 283 L 222 284 L 223 285 L 223 286 L 223 287 L 223 288 L 223 289 L 224 290 L 225 290 L 225 291 L 226 292 L 226 293 L 226 294 L 225 295 L 224 296 L 225 297 L 226 297 L 227 297 L 228 297 L 228 298 L 228 299 L 227 300 L 228 301 L 229 301 L 230 302 L 230 303 L 230 304 L 230 305 L 231 306 L 232 306 L 233 306 L 233 307 L 234 308 L 235 309 L 235 310 L 235 311 L 235 312 L 236 313 L 236 314 L 237 315 L 238 315 L 239 316 L 240 316 L 240 317 L 240 318 L 239 318 L 238 318 L 237 318 L 236 319 L 235 320 L 235 321 L 235 322 L 236 323 L 237 323 L 238 324 L 239 325 L 240 325 L 241 325 L 242 325 L 243 325 L 244 325 L 245 325 L 246 325 L 247 326 L 248 326 L 248 327 L 248 328 L 247 329 L 248 330 L 249 330 L 250 330 L 251 330 L 252 330 L 252 331 L 253 332 L 254 332 L 255 333 L 256 333 L 256 334 L 257 335 L 257 336 L 257 337 L 257 338 L 256 338 L 255 339 L 254 339 L 253 339 L 252 340 L 252 341 L 251 342 L 250 343 L 251 344 L 251 345 L 252 346 L 253 347 L 253 348 L 253 349 L 254 350 L 255 350 L 256 350 L 257 350 L 258 350 L 259 350 L 260 350 L 261 350 L 262 350 L 263 350 L 264 350 L 263 349 L 264 349 L 265 349 L 264 348 L 265 348 L 264 347 L 265 347 L 264 346 L 265 346 L 266 346 L 265 345 L 266 345 L 267 345 L 268 345 L 269 345 L 270 345 L 271 345 L 272 345 L 272 346 L 273 347 L 274 348 L 275 348 L 276 348 L 277 348 L 278 348 L 279 348 L 280 349 L 281 349 L 281 350 L 281 351 L 280 351 L 279 352 L 279 353 L 279 354 L 280 355 L 281 356 L 282 356 L 283 356 L 284 356 L 285 356 L 284 357 L 283 357 L 282 358 L 281 359 L 282 360 L 282 361 L 282 362 L 281 362 L 280 362 L 279 362 L 278 362 L 277 362 L 277 361 L 278 361 L 279 361 L 280 361 L 281 361 L 280 360 L 281 360 L 280 359 L 279 360 L 278 360 L 277 360 Z M 215 259 L 216 259 L 217 260 L 217 261 L 217 262 L 217 263 L 217 264 L 217 265 L 217 266 L 217 267 L 217 268 L 218 269 L 218 270 L 218 271 L 218 272 L 218 273 L 218 274 L 218 275 L 218 276 L 219 277 L 220 278 L 220 279 L 219 280 L 220 281 L 221 282 L 221 283 L 221 284 L 222 285 L 222 286 L 222 287 L 222 288 L 222 289 L 223 290 L 224 291 L 225 292 L 225 293 L 225 294 L 224 295 L 223 296 L 224 297 L 225 298 L 226 298 L 227 298 L 227 299 L 226 300 L 227 301 L 228 302 L 229 302 L 229 303 L 229 304 L 229 305 L 228 306 L 228 307 L 229 308 L 230 309 L 231 309 L 232 309 L 233 309 L 234 309 L 234 310 L 234 311 L 234 312 L 235 313 L 235 314 L 236 315 L 237 316 L 238 316 L 239 317 L 238 317 L 237 317 L 236 318 L 235 319 L 234 320 L 234 321 L 234 322 L 235 323 L 236 324 L 237 324 L 238 325 L 239 326 L 240 326 L 241 326 L 242 326 L 243 326 L 244 326 L 245 326 L 246 326 L 247 327 L 247 328 L 246 329 L 247 330 L 248 331 L 249 331 L 250 331 L 251 331 L 252 332 L 253 333 L 254 333 L 255 334 L 256 335 L 256 336 L 256 337 L 255 338 L 254 338 L 253 338 L 252 339 L 251 340 L 251 341 L 250 342 L 249 343 L 250 344 L 250 345 L 251 346 L 252 347 L 252 348 L 252 349 L 252 350 L 253 351 L 254 351 L 255 351 L 256 351 L 257 351 L 258 351 L 259 351 L 260 351 L 261 351 L 262 351 L 263 352 L 264 352 L 265 352 L 265 353 L 265 354 L 264 354 L 263 354 L 262 355 L 261 355 L 260 355 L 260 354 L 261 354 L 262 354 L 261 353 L 262 353 L 263 353 L 264 353 Z M 395 259 Z M 133 260 L 133 261 L 133 262 L 133 263 L 133 264 L 134 265 L 135 266 L 135 267 L 135 268 L 136 269 L 137 270 L 137 271 L 138 272 L 138 273 L 138 274 L 138 275 L 138 276 L 139 277 L 140 278 L 141 278 L 141 279 L 140 279 L 139 279 L 138 278 L 139 278 L 138 277 L 137 278 L 137 277 L 137 276 L 137 275 L 137 274 L 137 273 L 137 272 L 136 271 L 135 271 L 134 270 L 135 270 L 136 270 L 135 269 L 134 269 L 133 270 L 133 269 L 133 268 L 134 268 L 133 267 L 134 267 L 133 266 L 134 266 L 133 265 Z M 215 260 L 216 260 L 216 261 L 216 262 L 216 263 L 216 264 L 216 265 L 215 266 L 215 267 L 215 268 L 215 269 L 214 269 L 213 270 L 213 271 L 213 272 L 212 273 L 212 274 L 212 275 L 212 276 L 211 277 L 210 277 L 209 277 L 208 278 L 208 279 L 207 280 L 207 281 L 207 282 L 207 283 L 207 284 L 206 284 L 205 284 L 205 283 L 206 283 L 205 282 L 206 282 L 205 281 L 206 281 L 205 280 L 206 280 L 205 279 L 206 279 L 207 279 L 206 278 L 207 278 L 207 277 L 208 277 L 207 276 L 208 276 L 209 276 L 210 276 L 211 276 L 210 275 L 211 275 L 210 274 L 211 274 L 210 273 L 211 273 L 210 272 L 211 272 L 212 272 L 211 271 L 212 271 L 211 270 L 212 270 L 211 269 L 212 269 L 213 269 L 212 268 L 213 268 L 214 268 L 214 267 L 214 266 L 214 265 L 215 265 L 214 264 L 215 264 L 214 263 L 215 263 L 215 262 L 215 261 Z M 399 265 L 400 266 L 401 267 L 402 267 L 402 268 L 402 269 L 402 270 L 402 271 L 403 272 L 404 273 L 405 274 L 406 274 L 405 275 L 404 276 L 403 277 L 404 278 L 404 279 L 404 280 L 404 281 Z M 399 266 L 400 267 L 401 268 L 401 269 L 401 270 L 401 271 L 402 272 L 403 273 L 404 274 L 404 275 L 403 276 Z M 400 268 L 400 269 Z M 217 269 L 217 270 L 217 271 L 217 272 L 217 273 L 217 274 L 217 275 L 217 276 L 218 277 L 219 278 L 219 279 L 218 280 L 219 281 L 220 282 L 220 283 L 220 284 L 221 285 L 221 286 L 221 287 L 221 288 L 221 289 L 222 290 L 223 291 L 224 292 L 224 293 L 224 294 L 223 295 L 222 296 L 223 297 L 224 298 L 225 299 L 226 299 L 225 300 L 226 301 L 227 302 L 228 303 L 228 304 L 228 305 L 227 306 L 227 307 L 228 308 L 229 309 L 230 310 L 231 310 L 232 310 L 233 310 L 233 311 L 233 312 L 234 313 L 234 314 L 235 315 L 236 316 L 236 317 L 235 318 L 234 319 L 233 320 L 232 320 L 231 320 L 231 319 L 232 319 L 233 319 L 232 318 L 233 318 L 234 318 L 235 317 L 235 316 L 234 315 L 233 315 L 232 314 L 233 314 L 232 313 L 233 313 L 232 312 L 232 311 Z M 210 271 Z M 209 273 L 209 274 L 209 275 L 208 275 L 207 275 Z M 402 273 L 403 274 L 402 274 Z M 141 276 L 142 276 Z M 217 277 L 218 278 L 218 279 L 217 280 L 218 281 L 219 282 L 219 283 L 219 284 L 220 285 L 220 286 L 220 287 L 219 287 L 218 286 L 219 286 L 218 285 L 219 285 L 218 284 L 218 283 L 218 282 L 217 281 Z M 205 278 Z M 217 278 L 217 279 Z M 403 278 Z M 203 280 L 204 280 L 204 281 L 204 282 L 203 283 L 203 284 L 203 285 L 202 285 L 201 285 L 200 286 L 199 287 L 199 288 L 199 289 L 198 289 L 197 290 L 196 290 L 195 290 L 194 290 L 193 290 L 192 291 L 191 292 L 191 293 L 191 294 L 191 295 L 190 296 L 190 297 L 189 297 L 188 297 L 188 296 L 189 296 L 188 295 L 189 295 L 190 295 L 189 294 L 190 294 L 189 293 L 190 293 L 190 292 L 190 291 L 191 291 L 190 290 L 191 290 L 192 290 L 191 289 L 192 289 L 193 289 L 194 289 L 195 289 L 196 289 L 197 289 L 196 288 L 197 288 L 198 288 L 197 287 L 198 287 L 197 286 L 198 286 L 199 286 L 198 285 L 199 285 L 200 285 L 199 284 L 200 284 L 201 284 L 202 284 L 202 283 L 202 282 L 203 282 L 202 281 L 203 281 Z M 404 283 L 405 284 L 404 284 Z M 197 285 L 196 286 L 196 287 L 195 288 L 194 288 L 193 288 L 192 288 L 191 288 L 192 287 L 193 287 L 194 287 L 195 287 L 194 286 L 195 286 Z M 408 285 L 409 285 L 409 286 L 408 287 L 408 286 Z M 156 288 L 157 288 L 158 288 L 159 288 L 160 288 L 161 289 L 162 289 L 163 290 L 164 290 L 165 290 L 166 291 L 167 291 L 168 291 L 169 291 L 170 291 L 171 291 L 172 291 L 173 291 L 174 291 L 174 292 L 174 293 L 173 294 L 173 295 L 174 296 L 175 297 L 176 297 L 177 297 L 178 297 L 177 298 L 176 298 L 175 298 L 174 298 L 173 298 L 172 298 L 171 298 L 171 297 L 172 297 L 173 297 L 174 297 L 173 296 L 172 296 L 171 296 L 172 295 L 172 294 L 172 293 L 173 293 L 172 292 L 173 292 Z M 404 288 L 405 288 L 406 288 L 405 289 L 404 290 L 404 289 Z M 156 289 L 157 289 L 158 289 L 159 289 L 160 289 L 161 290 L 162 290 L 163 291 L 164 291 L 165 291 L 166 292 L 167 292 L 168 292 L 169 292 L 170 292 L 171 292 L 170 293 L 169 293 L 168 293 L 167 293 L 166 294 L 165 294 L 164 294 L 163 293 L 164 293 L 165 293 L 166 293 L 165 292 L 164 292 L 163 292 L 162 291 L 161 291 L 160 290 L 159 290 Z M 219 289 L 220 289 L 221 290 L 222 291 L 223 292 L 223 293 L 223 294 L 222 295 L 221 296 L 222 297 L 223 298 L 224 299 L 224 300 L 223 299 L 222 299 L 222 298 L 221 297 Z M 143 290 Z M 156 290 L 157 290 L 157 291 L 157 292 L 157 293 L 156 293 L 155 293 L 155 292 L 156 292 L 156 291 Z M 184 290 L 185 290 L 186 290 L 187 290 L 187 291 L 187 292 L 188 293 L 188 294 L 187 294 L 186 294 L 186 293 L 187 293 L 186 292 L 185 292 L 184 292 L 183 293 L 183 294 L 182 294 L 181 294 L 180 293 L 181 293 L 182 293 L 181 292 L 182 292 L 183 292 L 182 291 L 183 291 L 184 291 L 185 291 L 186 291 Z M 219 290 L 220 290 L 221 291 L 222 292 L 222 293 L 221 293 L 221 292 L 220 291 L 219 291 Z M 176 291 L 177 291 L 178 291 L 179 292 L 180 292 L 179 293 L 179 294 L 179 295 L 178 296 L 177 296 L 176 296 L 177 295 L 178 295 L 177 294 L 178 294 L 177 293 L 178 293 L 177 292 L 178 292 Z M 180 291 L 181 291 Z M 176 292 L 176 293 Z M 404 292 L 404 293 L 404 294 L 404 295 L 404 296 L 404 297 L 404 298 L 404 299 L 404 300 L 405 301 L 406 302 L 407 303 L 406 303 L 405 302 L 404 303 L 403 304 L 402 304 L 401 304 L 401 303 L 402 303 L 403 303 L 402 302 L 403 302 L 404 302 L 403 301 L 404 301 L 403 300 L 402 301 L 401 302 Z M 221 295 Z M 403 296 L 403 297 L 403 298 L 403 299 L 402 300 Z M 226 302 L 227 303 L 227 304 L 227 305 L 226 306 L 226 307 L 227 308 L 228 309 L 229 310 L 230 311 L 229 311 L 228 311 L 227 311 L 226 310 L 227 310 L 228 310 L 227 309 L 226 309 L 225 310 L 225 311 L 225 312 L 224 312 L 223 312 L 223 311 L 224 311 L 223 310 L 224 310 L 223 309 L 224 309 L 225 309 L 225 308 L 226 308 L 225 307 Z M 226 303 Z M 231 307 L 232 307 L 233 308 L 232 308 L 231 308 Z M 400 307 L 401 307 L 402 307 L 402 308 L 403 309 L 404 309 Z M 400 308 L 401 308 L 402 309 L 401 310 L 401 311 L 401 312 L 401 313 L 401 314 L 401 315 L 400 315 L 399 315 L 398 316 L 399 317 L 400 318 L 401 318 L 401 319 L 401 320 L 400 320 L 399 320 L 398 320 L 397 321 L 396 321 L 395 322 L 396 323 L 396 324 L 396 325 L 395 325 L 394 325 L 393 325 L 392 326 L 392 327 L 392 328 L 391 329 L 392 330 L 393 330 L 394 331 L 395 331 L 395 332 L 396 333 L 397 334 L 398 335 L 398 336 L 398 337 L 397 338 L 397 339 L 397 340 L 397 341 L 398 342 L 399 342 L 399 343 L 399 344 L 399 345 L 400 346 L 401 346 L 401 347 L 401 348 L 400 348 L 399 348 L 399 347 L 400 347 L 399 346 L 398 346 L 397 347 L 396 347 L 395 347 L 394 346 L 395 346 L 396 346 L 397 346 L 396 345 L 397 345 L 398 345 L 397 344 L 398 344 L 397 343 L 398 343 L 397 342 L 396 343 L 395 342 L 396 342 L 395 341 L 396 341 L 395 340 L 396 340 L 396 339 L 395 338 L 396 338 L 395 337 L 396 337 L 397 337 L 396 336 L 397 336 L 396 335 L 397 335 L 396 334 L 395 335 L 395 336 Z M 400 309 L 401 309 L 400 310 L 400 311 L 400 312 L 400 313 L 400 314 L 399 314 L 398 315 L 397 316 L 398 317 L 399 318 L 400 319 L 399 319 L 398 319 L 397 320 L 396 320 L 395 321 L 394 322 L 395 323 L 395 324 L 394 324 L 393 324 L 392 325 L 391 326 L 391 327 L 391 328 L 390 329 L 391 330 L 392 331 L 393 331 L 394 332 L 395 333 L 395 334 L 394 334 L 393 333 L 394 333 L 393 332 L 392 333 L 391 332 L 392 332 L 391 331 L 390 332 L 389 331 L 390 331 L 389 330 L 390 330 L 389 329 L 388 330 L 388 331 L 387 332 L 386 332 L 385 332 L 385 331 L 386 331 L 387 331 L 386 330 L 387 330 L 387 329 L 388 329 L 388 328 L 389 328 L 390 328 L 389 327 L 390 327 L 389 326 L 390 326 L 390 325 L 391 325 L 390 324 L 391 324 L 392 324 L 391 323 L 392 323 L 393 323 L 394 323 L 393 322 L 393 321 L 394 321 L 394 320 L 395 320 L 394 319 L 395 319 L 396 319 L 397 319 L 396 318 L 397 318 L 398 318 L 397 317 L 396 317 L 395 318 L 394 318 L 395 317 L 395 316 L 396 316 L 396 315 L 397 315 L 397 314 L 398 314 L 398 313 L 399 313 L 398 312 L 399 312 L 398 311 L 399 311 Z M 231 318 Z M 241 321 L 242 321 L 243 321 L 244 321 L 244 322 L 245 323 L 245 324 L 244 324 L 243 324 L 242 324 L 241 324 L 240 324 L 240 323 L 241 323 L 242 323 L 243 323 L 244 323 L 243 322 L 242 322 L 241 322 Z M 233 322 L 234 323 L 235 324 L 236 325 L 237 325 L 238 326 L 239 327 L 240 327 L 241 327 L 242 327 L 243 327 L 244 327 L 245 327 L 246 327 L 246 328 L 245 329 L 246 330 L 247 331 L 246 332 L 246 333 L 245 333 L 244 333 L 243 332 L 244 332 L 245 332 L 244 331 L 245 331 L 246 331 L 245 330 L 244 330 L 243 331 L 242 332 L 242 331 L 242 330 L 243 330 L 243 329 L 244 329 L 243 328 L 244 328 L 245 328 Z M 232 323 L 233 323 L 234 324 L 235 325 L 234 325 L 233 326 L 232 326 L 231 326 L 231 325 L 232 325 L 233 325 L 232 324 L 233 324 Z M 231 324 Z M 237 326 L 238 327 L 239 328 L 240 328 L 241 328 Z M 388 327 Z M 238 328 Z M 385 330 Z M 250 332 L 251 332 L 252 333 L 253 334 L 254 334 L 255 335 L 255 336 L 255 337 L 254 337 L 253 337 L 252 338 L 251 339 L 250 340 L 250 341 L 249 342 L 249 341 Z M 250 333 L 251 333 L 252 334 L 252 335 L 251 335 L 250 335 L 250 334 L 251 334 Z M 254 335 L 254 336 Z M 380 335 L 381 335 L 382 335 L 382 336 L 382 337 L 381 338 L 381 339 L 381 340 L 382 341 L 383 342 L 384 343 L 384 344 L 385 345 L 386 345 L 387 345 L 388 346 L 389 346 L 390 346 L 391 346 L 392 346 L 393 346 L 392 347 L 391 347 L 390 347 L 389 348 L 388 349 L 387 349 L 386 349 L 386 348 L 387 348 L 388 348 L 387 347 L 388 347 L 389 347 Z M 380 336 L 381 336 L 381 337 L 380 338 L 380 339 L 380 340 L 381 341 L 382 342 L 383 343 L 383 344 L 384 345 L 385 346 L 386 346 L 387 346 L 386 347 Z M 251 337 L 252 337 L 251 338 Z M 378 337 L 379 337 L 380 337 L 379 338 L 379 339 L 379 340 L 380 341 L 381 342 L 382 343 L 382 344 L 383 345 L 384 346 L 383 346 L 382 346 L 382 345 L 381 344 L 380 344 L 380 343 L 381 343 L 380 342 L 379 341 L 378 342 L 377 342 L 376 343 L 376 344 L 375 344 L 374 344 L 373 345 L 373 346 L 373 347 L 372 348 L 371 348 L 370 348 L 369 347 L 370 347 L 371 347 L 372 347 L 371 346 L 372 346 L 371 345 L 372 345 L 371 344 L 372 344 L 373 344 L 372 343 L 373 343 L 374 343 L 375 343 L 374 342 L 375 342 L 376 342 L 375 341 L 376 341 L 377 341 L 378 341 L 377 340 L 378 340 L 377 339 L 378 339 L 377 338 L 378 338 Z M 262 339 L 263 339 L 264 339 L 265 340 L 265 341 L 266 342 L 267 342 L 268 343 L 269 343 L 270 343 L 271 344 L 272 344 Z M 376 339 L 376 340 L 375 340 L 374 341 L 373 342 L 372 342 L 371 343 Z M 262 340 L 263 340 L 264 340 L 264 341 L 265 342 L 266 343 L 267 343 L 268 344 L 269 344 L 270 344 Z M 374 340 Z M 262 341 L 263 341 L 264 342 L 265 343 L 266 344 L 267 344 Z M 263 342 L 264 343 L 265 344 L 264 345 L 264 344 L 263 343 Z M 249 344 L 249 345 L 250 346 L 251 347 L 251 348 L 251 349 L 251 350 L 252 351 L 253 352 L 254 352 L 255 352 L 254 353 L 253 354 L 253 355 L 252 355 L 251 355 L 250 356 L 249 356 L 248 356 L 248 355 L 249 355 L 250 355 L 249 354 L 250 354 L 251 354 L 252 354 L 251 353 L 252 353 L 253 353 L 252 352 L 251 352 L 250 352 L 250 351 L 251 351 L 250 350 L 250 349 Z M 392 344 L 393 344 L 394 344 L 395 345 L 394 345 L 393 345 L 392 345 L 391 345 L 390 345 L 389 345 Z M 405 344 L 406 344 L 407 344 L 407 345 L 407 346 L 406 346 L 405 346 L 405 345 L 406 345 Z M 368 345 L 369 345 L 370 345 L 370 346 L 369 346 L 368 347 L 368 348 L 367 348 L 366 349 L 367 350 L 368 350 L 368 351 L 368 352 L 367 353 L 366 353 L 365 354 L 365 355 L 365 356 L 365 357 L 364 357 L 363 357 L 362 357 L 361 357 L 360 357 L 359 357 L 358 357 L 358 356 L 359 356 L 360 356 L 361 356 L 362 356 L 363 356 L 364 356 L 363 355 L 364 355 L 363 354 L 364 354 L 363 353 L 364 353 L 365 353 L 364 352 L 365 352 L 366 352 L 367 352 L 366 351 L 367 351 L 366 350 L 365 351 L 364 351 L 363 350 L 364 350 L 365 350 L 364 349 L 365 349 L 364 348 L 365 348 L 366 348 L 365 347 L 366 347 L 367 347 L 367 346 L 368 346 Z M 269 346 L 270 346 L 271 346 L 272 347 L 273 348 L 274 349 L 275 349 L 276 349 L 277 349 L 278 349 L 279 349 L 280 350 L 279 351 L 278 352 L 278 353 L 278 354 L 279 355 L 280 356 L 281 357 L 282 357 L 281 358 L 280 358 L 279 359 L 278 358 L 279 358 L 278 357 L 279 357 L 280 357 L 279 356 L 278 356 L 278 355 Z M 250 347 Z M 269 347 L 270 347 L 271 347 L 272 348 L 273 349 L 274 350 L 273 351 L 273 352 L 272 352 L 271 352 L 271 351 L 272 351 L 271 350 L 272 350 L 273 350 L 272 349 L 271 348 L 270 348 L 269 348 Z M 263 348 L 262 349 L 261 349 Z M 363 348 L 363 349 Z M 276 350 L 277 350 L 278 350 L 279 350 L 278 351 L 277 351 L 276 351 Z M 358 350 L 359 350 L 360 350 L 360 351 L 360 352 L 360 353 L 361 354 L 362 354 L 362 355 L 361 355 L 360 355 L 359 355 L 358 355 L 358 354 L 359 354 L 360 354 L 359 353 L 358 353 L 357 353 L 356 354 L 356 355 L 355 355 L 354 356 L 354 357 L 354 358 L 354 359 L 353 360 L 353 361 L 352 361 L 351 361 L 351 360 L 352 360 L 351 359 L 352 359 L 353 359 L 352 358 L 353 358 L 352 357 L 353 357 L 352 356 L 353 356 L 352 355 L 353 355 L 354 355 L 353 354 L 354 354 L 355 354 L 354 353 L 355 353 L 356 353 L 355 352 L 356 352 L 357 352 L 358 352 L 359 352 L 358 351 L 359 351 Z M 354 351 L 355 351 L 356 351 L 357 351 Z M 257 352 L 258 352 L 259 352 L 260 352 L 261 352 L 262 352 Z M 285 352 L 286 352 L 287 352 L 288 352 L 288 353 L 289 354 L 290 354 L 291 354 L 291 355 L 292 356 L 293 357 L 294 357 L 295 357 L 295 358 L 295 359 L 295 360 L 294 360 L 293 361 L 292 361 L 291 361 L 290 360 L 291 360 L 292 360 L 293 360 L 292 359 L 293 359 L 294 359 L 293 358 L 294 358 Z M 354 352 L 353 353 L 352 354 L 351 355 L 351 356 L 351 357 L 351 358 L 350 358 L 349 358 L 348 358 L 347 358 L 346 359 L 346 360 L 345 360 L 344 360 L 343 360 L 342 359 L 343 359 L 344 359 L 345 359 L 344 358 L 345 358 L 346 358 L 345 357 L 346 357 L 347 357 L 348 357 L 349 357 L 350 357 L 349 356 L 350 356 L 349 355 L 348 356 L 347 356 L 346 356 L 345 356 L 344 357 L 343 358 L 342 358 L 341 359 L 340 359 L 339 359 L 338 359 L 337 360 L 336 360 L 335 360 L 334 360 L 333 360 L 332 361 L 333 362 L 334 363 L 335 363 L 335 364 L 336 365 L 337 365 L 338 365 L 338 366 L 339 367 L 339 368 L 339 369 L 338 370 L 339 371 L 340 372 L 340 373 L 340 374 L 340 375 L 339 375 L 338 376 L 338 377 L 338 378 L 337 379 L 338 380 L 339 380 L 339 381 L 339 382 L 339 383 L 338 384 L 337 385 L 336 385 L 335 385 L 334 386 L 333 387 L 333 388 L 333 389 L 332 389 L 331 389 L 330 389 L 329 389 L 328 389 L 327 390 L 327 391 L 328 392 L 328 393 L 328 394 L 327 395 L 327 396 L 326 397 L 326 398 L 325 399 L 324 399 L 323 399 L 322 399 L 321 398 L 322 398 L 323 398 L 324 398 L 325 398 L 324 397 L 325 397 L 324 396 L 325 396 L 326 396 L 325 395 L 326 395 L 326 394 L 327 394 L 326 393 L 327 393 L 326 392 L 327 392 L 326 391 L 325 391 L 324 391 L 324 390 L 325 390 L 326 390 L 325 389 L 326 389 L 327 389 L 326 388 L 327 388 L 328 388 L 329 388 L 330 388 L 331 388 L 332 388 L 331 387 L 332 387 L 332 386 L 333 386 L 332 385 L 333 385 L 334 385 L 333 384 L 334 384 L 335 384 L 336 384 L 337 384 L 336 383 L 337 383 L 338 383 L 337 382 L 338 382 L 337 381 L 338 381 L 337 380 L 336 381 L 335 381 L 335 380 L 336 380 L 335 379 L 336 379 L 336 378 L 337 378 L 336 377 L 337 377 L 336 376 L 337 376 L 336 375 L 337 375 L 338 375 L 337 374 L 338 374 L 339 374 L 338 373 L 339 373 L 338 372 L 339 372 L 338 371 L 337 372 L 337 373 L 336 374 L 336 373 L 336 372 L 336 371 L 337 371 L 336 370 L 337 370 L 336 369 L 337 369 L 338 369 L 337 368 L 338 368 L 337 367 L 338 367 L 337 366 L 336 367 L 336 368 L 335 368 L 335 367 L 334 366 L 335 366 L 336 366 L 335 365 L 334 365 L 333 364 L 334 364 L 333 363 L 332 364 L 331 363 L 332 363 L 331 362 L 332 362 L 331 361 L 330 362 L 329 362 L 329 361 L 330 361 L 329 360 L 330 360 L 329 359 L 330 359 L 331 359 L 332 359 L 333 359 L 334 359 L 335 359 L 336 359 L 337 359 L 336 358 L 337 358 L 338 358 L 339 358 L 340 358 L 341 358 L 340 357 L 341 357 L 342 357 L 343 357 L 342 356 L 343 356 L 344 356 L 343 355 L 344 355 L 345 355 L 346 355 L 347 355 L 348 355 L 347 354 L 348 354 L 349 354 Z M 260 353 Z M 285 353 L 286 353 L 287 353 L 288 354 L 289 355 L 290 355 L 291 356 L 292 357 L 292 358 L 291 359 L 290 359 L 290 358 L 291 358 L 290 357 L 291 357 L 290 356 L 289 356 L 288 356 L 287 356 L 286 355 L 287 355 L 288 355 L 287 354 L 286 354 L 285 355 L 284 355 L 283 355 L 284 354 L 285 354 Z M 351 353 L 352 353 L 351 354 Z M 248 354 Z M 346 354 Z M 294 355 L 295 355 L 296 355 L 297 355 L 298 355 L 299 356 L 300 356 L 301 356 L 302 357 L 303 357 L 304 357 L 305 357 L 306 358 L 307 358 L 308 358 L 309 358 L 310 358 L 311 358 L 312 358 L 313 358 L 314 358 L 315 358 L 316 358 L 316 359 L 316 360 L 315 360 L 314 361 L 313 361 L 312 361 L 311 362 L 310 363 L 309 363 L 308 364 L 308 365 L 308 366 L 308 367 L 307 367 L 306 368 L 306 369 L 306 370 L 306 371 L 306 372 L 305 373 L 305 374 L 306 375 L 306 376 L 306 377 L 306 378 L 306 379 L 307 380 L 307 381 L 307 382 L 307 383 L 308 384 L 309 384 L 310 384 L 310 385 L 311 386 L 312 386 L 312 387 L 313 388 L 314 388 L 315 388 L 316 389 L 317 389 L 318 390 L 319 390 L 320 390 L 321 390 L 321 391 L 320 392 L 319 393 L 320 394 L 320 395 L 321 396 L 322 397 L 323 397 L 323 396 Z M 341 355 L 342 355 L 341 356 Z M 367 355 L 368 355 L 369 355 L 369 356 L 369 357 L 368 357 L 367 357 L 367 356 L 368 356 Z M 294 356 L 295 356 L 296 356 L 297 356 L 298 356 L 299 357 L 300 357 L 301 357 L 302 358 L 303 358 L 304 358 L 305 358 L 306 359 L 307 359 L 308 359 L 309 359 L 310 359 L 311 359 L 312 359 L 313 359 L 314 359 L 315 359 L 314 360 L 313 360 L 312 360 L 311 361 L 310 362 L 309 362 L 308 363 L 307 364 L 307 365 L 307 366 L 306 367 L 305 368 L 305 369 L 305 370 L 305 371 L 305 372 L 304 373 L 304 374 L 305 375 L 305 376 L 305 377 L 305 378 L 305 379 L 306 380 L 306 381 L 306 382 L 306 383 L 305 384 L 306 385 L 307 385 L 308 385 L 309 385 L 310 386 L 311 387 L 312 388 L 313 389 L 314 389 L 315 389 L 316 390 L 317 390 L 318 391 L 319 391 L 320 391 L 319 392 L 318 393 L 319 394 L 319 395 L 320 396 L 321 397 L 320 398 L 319 398 L 318 398 L 318 397 L 319 397 L 320 397 L 319 396 L 318 396 L 318 395 L 317 394 L 318 394 L 317 393 L 316 392 L 317 392 L 318 392 L 317 391 L 316 391 L 315 391 L 314 391 L 313 390 L 314 390 L 315 390 Z M 303 356 L 304 356 L 305 356 Z M 337 356 L 338 356 L 339 356 L 339 357 L 338 357 L 337 357 L 336 357 L 335 358 L 334 358 L 333 358 L 332 358 L 331 358 L 330 358 L 329 358 L 328 359 L 328 360 L 327 360 L 326 360 L 326 359 L 327 359 L 326 358 L 327 358 L 328 358 Z M 400 356 L 401 356 L 402 356 L 402 357 L 402 358 L 401 358 L 400 358 L 400 357 L 401 357 Z M 297 357 L 298 357 L 299 358 L 300 358 L 301 358 L 302 359 L 303 359 L 304 359 L 305 359 L 304 360 L 303 360 L 302 360 L 301 359 L 300 360 L 299 360 L 298 360 L 298 359 L 299 359 L 300 359 Z M 331 357 L 332 357 L 333 357 Z M 335 357 Z M 297 358 L 298 358 Z M 310 360 L 311 360 L 310 361 L 309 361 L 308 362 L 307 363 L 306 364 L 306 365 L 306 366 L 305 367 L 304 368 L 304 369 L 304 370 L 304 371 L 304 372 L 303 371 L 302 370 L 303 370 L 302 369 L 303 369 L 302 368 L 301 369 L 301 370 L 300 370 L 300 369 L 300 368 L 301 368 Z M 364 360 L 365 360 L 366 360 L 366 361 L 366 362 L 365 362 L 364 362 L 364 361 L 365 361 Z M 307 362 L 306 363 Z M 305 365 L 305 366 Z M 302 374 L 303 374 L 304 375 L 304 376 L 304 377 L 304 378 L 304 379 L 305 380 L 305 381 L 305 382 L 305 383 L 304 384 L 305 385 L 306 386 L 307 386 L 308 386 L 309 386 L 310 387 L 311 388 L 312 389 L 312 390 L 311 390 L 311 389 Z M 300 375 L 301 375 L 302 375 L 303 375 L 303 376 L 303 377 L 303 378 L 303 379 L 304 380 L 304 381 L 304 382 L 304 383 Z M 300 376 L 301 376 L 302 376 L 302 377 L 301 377 L 300 377 Z M 303 380 Z M 334 383 L 335 383 Z M 304 385 L 305 386 L 306 387 L 307 387 Z M 304 386 L 305 387 Z M 309 387 Z M 329 387 L 330 387 Z M 319 389 L 320 389 L 321 389 Z M 324 389 Z M 323 403 L 324 403 L 325 403 L 325 404 L 325 405 L 324 405 L 323 405 L 323 404 L 324 404 Z M 314 421 L 315 421 L 316 421 L 317 421 L 317 422 L 317 423 L 317 424 L 316 424 L 315 424 L 314 423 L 315 423 L 316 423 L 315 422 L 316 422 Z M 314 422 Z " fill="black" stroke="none"/>
</svg>